<svg width="111" height="122" viewBox="0 0 111 122" fill="none" xmlns="http://www.w3.org/2000/svg">
<g id="Group">
<g id="Group_2">
<path id="Vector" d="M5 40.22V85.049C5 88.7098 6.9215 91.4615 11.2347 93.9658L43.4907 112.607C45.4933 113.766 47.1875 114.747 48.6522 115.539L48.65 74.7575C48.6455 70.3363 48.587 66.8668 47.894 65.7823C47.0727 64.502 43.6888 62.5445 39.0088 59.8355L40.1293 57.8848L39.0043 59.8333L5 40.22ZM50.9022 121.393C50.6039 121.394 50.3084 121.334 50.0337 121.218C47.6982 120.239 44.987 118.675 41.2385 116.502L8.98025 97.8583C3.272 94.544 0.5 90.3545 0.5 85.049V37.1623C0.5 36.827 0.51125 36.5008 0.536 36.1745C0.563296 35.7944 0.686815 35.4274 0.894947 35.1081C1.10308 34.7888 1.38899 34.5277 1.7258 34.3492C2.0626 34.1708 2.43925 34.081 2.82033 34.0882C3.20141 34.0953 3.5744 34.1993 3.90425 34.3903L41.252 55.934L41.2565 55.9363L40.1293 57.8848L41.261 55.9385C47.0727 59.3023 50.2745 61.1585 51.683 63.3568C53.0015 65.4178 53.1432 68.4125 53.15 74.7553L53.1522 119.143C53.1525 119.439 53.0946 119.732 52.9816 120.005C52.8686 120.278 52.7029 120.526 52.4939 120.735C52.2849 120.944 52.0368 121.11 51.7636 121.223C51.4905 121.336 51.1978 121.394 50.9022 121.393ZM62.15 74.762V115.523C63.8885 114.572 65.6136 113.597 67.325 112.598C80.4043 105.067 99.5675 93.9635 99.5675 93.9635C103.876 91.4413 105.8 88.6895 105.8 85.049V40.2178L71.8227 59.8153C67.1202 62.5333 63.7453 64.4908 62.924 65.7733C62.2175 66.8735 62.1545 70.3408 62.15 74.762ZM59.9 121.378C59.3033 121.378 58.731 121.14 58.309 120.719C57.8871 120.297 57.65 119.724 57.65 119.128V74.7575C57.659 68.417 57.8007 65.42 59.135 63.3433C60.5502 61.1383 63.743 59.291 69.5435 55.9363L106.894 34.3925C107.223 34.2022 107.596 34.0988 107.977 34.0919C108.358 34.085 108.734 34.1749 109.071 34.3532C109.408 34.5316 109.693 34.7924 109.902 35.1114C110.11 35.4303 110.234 35.7969 110.262 36.1768C110.289 36.5008 110.3 36.8293 110.3 37.1623V85.049C110.3 90.3275 107.53 94.5148 101.835 97.8515C101.826 97.8583 82.6543 108.964 69.5705 116.497C65.8265 118.657 63.1198 120.217 60.773 121.2C60.4974 121.316 60.1992 121.377 59.9 121.378Z" fill="#1A1C1F"/>
<path id="Vector_2" fill-rule="evenodd" clip-rule="evenodd" d="M11.2484 28.2366L45.7364 48.1311C50.4861 50.8783 53.9174 52.8583 55.3731 52.8583C56.8581 52.8583 60.4671 50.7793 65.0414 48.1446L99.5519 28.2388L67.2666 9.53681C57.8234 4.06706 52.9409 4.06706 43.5359 9.53681C33.6494 15.2833 12.0134 27.7956 11.2484 28.2366ZM55.3731 57.3583C52.7114 57.3583 49.6289 55.5763 43.4864 52.0281L5.94512 30.3718C5.63313 30.1917 5.36893 29.9394 5.17474 29.636C4.98055 29.3326 4.86205 28.987 4.8292 28.6283C4.79635 28.2696 4.85011 27.9082 4.98596 27.5746C5.12181 27.2409 5.33577 26.9448 5.60987 26.7111C6.66948 25.8169 7.80816 25.0209 9.01187 24.3328C9.01187 24.3328 31.2194 11.4921 41.2724 5.64881C52.0791 -0.635441 58.6784 -0.635441 69.5211 5.64431L101.82 24.3531C103.008 25.0393 104.891 26.4793 105.105 26.6413C105.399 26.8665 105.632 27.1607 105.785 27.4978C105.938 27.835 106.005 28.2046 105.98 28.5739C105.956 28.9432 105.84 29.3008 105.645 29.6148C105.449 29.9288 105.178 30.1896 104.857 30.3741L67.2891 52.0416C61.3356 55.4706 58.0574 57.3583 55.3731 57.3583Z" fill="#EC0016"/>
</g>
</g>
</svg>
